# xmcd
#
# Track frame offsets:
#	150
#	16850
#	34031
#	48585
#	65020
#	79504
#	108242
#	122323
#	137624
#	151432
#	164587
#	179626
#	194153
#	210222
#
# Disc length: 2999 seconds
#
# Revision: 0
# Processed by: cddbd v1.5.2PL0 Copyright (c) Steve Scherf et al.
# Submitted via: EasyCDDAExtractor 16.0.8.2
#
DISCID=ba0bb50e
DTITLE=Ξυλούρης Νίκος - Ο αρχάγγελος της Κρήτης-Ν. Ξυλούρης, δίφωνο
DYEAR=2002
DGENRE=Κρητική
TTITLE0=Ξυλούρης Νίκος - Μιά παντρεμένη αγαπώ (Φιλεντέμ)[Ν. Ξυλούρης]
TTITLE1=Ξυλούρης Νίκος - Όσο βαρούν τα σίδερα [παρ., διασκ. Ν. κ Γ. Ξυλούρης]
TTITLE2=Ξυλούρης Νίκος - Σύννεφα φέρερε βροχή [Ν. Ξυλούρης]
TTITLE3=Ξυλούρης Νίκος - Σαν έρθουν μάνα οι φίλοι μου  [Ν. κ Γ. Ξυλούρης]
TTITLE4=Ξυλούρης Νίκος - Στο ρίζωμα του χαρακιού [Ν. Ξυλούρης]
TTITLE5=Ξυλούρης Νίκος - Εις του βαρσάμου το νερό [διασκ. Ν. κ Γ. Ξυλούρης]
TTITLE6=Ξυλούρης Νίκος - Έφυγες δίχως αφορμή [Ν. κ Γ. Ξυλούρης]
TTITLE7=Ξυλούρης Νίκος - Ήρθες αργά, δεν πρόλαβες [Ν. Ξυλούρης]
TTITLE8=Ξυλούρης Νίκος - Εγώ είμαι του μπαξέ πουλί [Ν. κ Γ. Ξυλούρης]
TTITLE9=Ξυλούρης Νίκος - Ίντα έχετε γύρου, γύρου [Ν. κ Γ. Ξυλούρης]
TTITLE10=Ξυλούρης Νίκος - Μην περιμένεις τον καιρό [Ν. Ξυλούρης]
TTITLE11=Ξυλούρης Νίκος - Ζήσω-πεθάνω στη ζωή [Ν. Ξυλούρης]
TTITLE12=Άνευ ερμηνευτού - Μαλεβιζιώτικος καστρινός χορός [Ν. Ξυλούρης]
TTITLE13=Ξυλούρης Νίκος - Δεν κλαίν' οι δυνατές καρδιές [Ν. Ξυλούρης]
EXTD=
EXTT0=
EXTT1=
EXTT2=
EXTT3=
EXTT4=
EXTT5=
EXTT6=
EXTT7=
EXTT8=
EXTT9=
EXTT10=
EXTT11=
EXTT12=
EXTT13=
PLAYORDER=
